<?xml version="1.0" encoding="UTF-8" standalone="no"?><svg xmlns="http://www.w3.org/2000/svg" xmlns:xlink="http://www.w3.org/1999/xlink" contentScriptType="application/ecmascript" contentStyleType="text/css" height="917px" preserveAspectRatio="none" style="width:486px;height:917px;" version="1.1" viewBox="0 0 486 917" width="486px" zoomAndPan="magnify"><defs><filter height="300%" id="f1302xrsic3yg" width="300%" x="-1" y="-1"><feGaussianBlur result="blurOut" stdDeviation="2.0"/><feColorMatrix in="blurOut" result="blurOut2" type="matrix" values="0 0 0 0 0 0 0 0 0 0 0 0 0 0 0 0 0 0 .4 0"/><feOffset dx="4.0" dy="4.0" in="blurOut2" result="blurOut3"/><feBlend in="SourceGraphic" in2="blurOut3" mode="normal"/></filter></defs><g><!--cluster DockerHost--><polygon fill="#FFFFFF" filter="url(#f1302xrsic3yg)" points="110.5,26,120.5,16,464.5,16,464.5,895,454.5,905,110.5,905,110.5,26" style="stroke: #000000; stroke-width: 2.0;"/><line style="stroke: #000000; stroke-width: 2.0;" x1="454.5" x2="463.5" y1="26" y2="17"/><line style="stroke: #000000; stroke-width: 2.0;" x1="110.5" x2="454.5" y1="26" y2="26"/><line style="stroke: #000000; stroke-width: 2.0;" x1="454.5" x2="454.5" y1="26" y2="905"/><text fill="#000000" font-family="sans-serif" font-size="14" font-weight="bold" lengthAdjust="spacingAndGlyphs" textLength="92" x="237.5" y="41.9951">DockerHost</text><!--cluster ICNDB--><polygon fill="#FFFFFF" filter="url(#f1302xrsic3yg)" points="294.5,253,304.5,243,456.5,243,456.5,657,446.5,667,294.5,667,294.5,253" style="stroke: #000000; stroke-width: 2.0;"/><line style="stroke: #000000; stroke-width: 2.0;" x1="446.5" x2="455.5" y1="253" y2="244"/><line style="stroke: #000000; stroke-width: 2.0;" x1="294.5" x2="446.5" y1="253" y2="253"/><line style="stroke: #000000; stroke-width: 2.0;" x1="446.5" x2="446.5" y1="253" y2="667"/><text fill="#000000" font-family="sans-serif" font-size="14" font-weight="bold" lengthAdjust="spacingAndGlyphs" textLength="47" x="348" y="268.9951">ICNDB</text><!--cluster Jericho--><polygon fill="#FFFFFF" filter="url(#f1302xrsic3yg)" points="118.5,58,128.5,48,286.5,48,286.5,887,276.5,897,118.5,897,118.5,58" style="stroke: #000000; stroke-width: 2.0;"/><line style="stroke: #000000; stroke-width: 2.0;" x1="276.5" x2="285.5" y1="58" y2="49"/><line style="stroke: #000000; stroke-width: 2.0;" x1="118.5" x2="276.5" y1="58" y2="58"/><line style="stroke: #000000; stroke-width: 2.0;" x1="276.5" x2="276.5" y1="58" y2="897"/><text fill="#000000" font-family="sans-serif" font-size="14" font-weight="bold" lengthAdjust="spacingAndGlyphs" textLength="54" x="171.5" y="73.9951">Jericho</text><!--entity Vert.X App--><polygon fill="#FFFFFF" filter="url(#f1302xrsic3yg)" points="316.5,285,326.5,275,428.5,275,428.5,311.2969,418.5,321.2969,316.5,321.2969,316.5,285" style="stroke: #000000; stroke-width: 1.5;"/><line style="stroke: #000000; stroke-width: 1.5;" x1="418.5" x2="427.5" y1="285" y2="276"/><line style="stroke: #000000; stroke-width: 1.5;" x1="316.5" x2="418.5" y1="285" y2="285"/><line style="stroke: #000000; stroke-width: 1.5;" x1="418.5" x2="418.5" y1="285" y2="321.2969"/><text fill="#000000" font-family="sans-serif" font-size="14" lengthAdjust="spacingAndGlyphs" textLength="72" x="331.5" y="307.9951">Vert.X App</text><!--entity PostgreSQL DB--><polygon fill="#FFFFFF" filter="url(#f1302xrsic3yg)" points="302.5,623,312.5,613,448.5,613,448.5,649.2969,438.5,659.2969,302.5,659.2969,302.5,623" style="stroke: #000000; stroke-width: 1.5;"/><line style="stroke: #000000; stroke-width: 1.5;" x1="438.5" x2="447.5" y1="623" y2="614"/><line style="stroke: #000000; stroke-width: 1.5;" x1="302.5" x2="438.5" y1="623" y2="623"/><line style="stroke: #000000; stroke-width: 1.5;" x1="438.5" x2="438.5" y1="623" y2="659.2969"/><text fill="#000000" font-family="sans-serif" font-size="14" lengthAdjust="spacingAndGlyphs" textLength="106" x="317.5" y="645.9951">PostgreSQL DB</text><!--entity Jericho-Attacker--><polygon fill="#FFFFFF" filter="url(#f1302xrsic3yg)" points="128.5,90,138.5,80,276.5,80,276.5,116.2969,266.5,126.2969,128.5,126.2969,128.5,90" style="stroke: #000000; stroke-width: 1.5;"/><line style="stroke: #000000; stroke-width: 1.5;" x1="266.5" x2="275.5" y1="90" y2="81"/><line style="stroke: #000000; stroke-width: 1.5;" x1="128.5" x2="266.5" y1="90" y2="90"/><line style="stroke: #000000; stroke-width: 1.5;" x1="266.5" x2="266.5" y1="90" y2="126.2969"/><text fill="#000000" font-family="sans-serif" font-size="14" lengthAdjust="spacingAndGlyphs" textLength="108" x="143.5" y="112.9951">Jericho-Attacker</text><!--entity Jericho-Reporter--><polygon fill="#FFFFFF" filter="url(#f1302xrsic3yg)" points="126.5,454,136.5,444,278.5,444,278.5,480.2969,268.5,490.2969,126.5,490.2969,126.5,454" style="stroke: #000000; stroke-width: 1.5;"/><line style="stroke: #000000; stroke-width: 1.5;" x1="268.5" x2="277.5" y1="454" y2="445"/><line style="stroke: #000000; stroke-width: 1.5;" x1="126.5" x2="268.5" y1="454" y2="454"/><line style="stroke: #000000; stroke-width: 1.5;" x1="268.5" x2="268.5" y1="454" y2="490.2969"/><text fill="#000000" font-family="sans-serif" font-size="14" lengthAdjust="spacingAndGlyphs" textLength="112" x="141.5" y="476.9951">Jericho-Reporter</text><!--entity Report-Viewer--><polygon fill="#FFFFFF" filter="url(#f1302xrsic3yg)" points="126.5,853,136.5,843,264.5,843,264.5,879.2969,254.5,889.2969,126.5,889.2969,126.5,853" style="stroke: #000000; stroke-width: 1.5;"/><line style="stroke: #000000; stroke-width: 1.5;" x1="254.5" x2="263.5" y1="853" y2="844"/><line style="stroke: #000000; stroke-width: 1.5;" x1="126.5" x2="254.5" y1="853" y2="853"/><line style="stroke: #000000; stroke-width: 1.5;" x1="254.5" x2="254.5" y1="853" y2="889.2969"/><text fill="#000000" font-family="sans-serif" font-size="14" lengthAdjust="spacingAndGlyphs" textLength="98" x="141.5" y="875.9951">Report-Viewer</text><!--entity Browser--><polygon fill="#FFFFFF" filter="url(#f1302xrsic3yg)" points="6,730,16,720,103,720,103,756.2969,93,766.2969,6,766.2969,6,730" style="stroke: #000000; stroke-width: 1.5;"/><line style="stroke: #000000; stroke-width: 1.5;" x1="93" x2="102" y1="730" y2="721"/><line style="stroke: #000000; stroke-width: 1.5;" x1="6" x2="93" y1="730" y2="730"/><line style="stroke: #000000; stroke-width: 1.5;" x1="93" x2="93" y1="730" y2="766.2969"/><text fill="#000000" font-family="sans-serif" font-size="14" lengthAdjust="spacingAndGlyphs" textLength="57" x="21" y="752.9951">Browser</text><!--link Vert.X App to PostgreSQL DB--><path d="M372.9241,321.3123 C373.1966,338.2807 373.5,361.8137 373.5,382.5 C373.5,382.5 373.5,382.5 373.5,551.5 C373.5,570.0893 373.9897,590.9725 374.4845,607.3274 " fill="none" id="Vert.X App-PostgreSQL DB" style="stroke: #A80036; stroke-width: 1.0;"/><polygon fill="#A80036" points="374.6518,612.6904,378.3691,603.57,374.4958,607.6928,370.3729,603.8196,374.6518,612.6904" style="stroke: #A80036; stroke-width: 1.0;"/><text fill="#000000" font-family="sans-serif" font-size="13" lengthAdjust="spacingAndGlyphs" textLength="26" x="374.5" y="471.5669">DAL</text><!--link Jericho-Attacker to Jericho-Reporter--><path d="M191.2727,126.3685 C183.4828,144.7267 174.5,171.171 174.5,195.5 C174.5,195.5 174.5,195.5 174.5,382.5 C174.5,401.9679 181.2796,422.7367 188.1668,438.8124 " fill="none" id="Jericho-Attacker-Jericho-Reporter" style="stroke: #A80036; stroke-width: 1.0;"/><polygon fill="#A80036" points="190.3002,443.6441,190.3239,433.7953,188.2805,439.0702,183.0056,437.0268,190.3002,443.6441" style="stroke: #A80036; stroke-width: 1.0;"/><text fill="#000000" font-family="sans-serif" font-size="13" lengthAdjust="spacingAndGlyphs" textLength="102" x="175.5" y="302.5669">Simulation Logs</text><!--link Jericho-Reporter to Report-Viewer--><path d="M196.1386,490.1174 C192.0504,506.9915 187.5,530.4917 187.5,551.5 C187.5,551.5 187.5,551.5 187.5,743 C187.5,775.5645 190.3268,812.8766 192.6198,837.7852 " fill="none" id="Jericho-Reporter-Report-Viewer" style="stroke: #A80036; stroke-width: 1.0;"/><polygon fill="#A80036" points="193.0997,842.906,196.2421,833.5719,192.633,837.9278,188.2771,834.3187,193.0997,842.906" style="stroke: #A80036; stroke-width: 1.0;"/><text fill="#000000" font-family="sans-serif" font-size="13" lengthAdjust="spacingAndGlyphs" textLength="78" x="188.5" y="640.5669">HTML report</text><!--link Jericho-Attacker to Vert.X App--><path d="M222.6688,126.1348 C254.2366,162.3449 315.1764,232.2464 348.7942,270.808 " fill="none" id="Jericho-Attacker-Vert.X App" style="stroke: #A80036; stroke-width: 1.0;"/><polygon fill="#A80036" points="352.3574,274.8953,349.4582,265.4828,349.0717,271.1265,343.4281,270.7399,352.3574,274.8953" style="stroke: #A80036; stroke-width: 1.0;"/><text fill="#000000" font-family="sans-serif" font-size="13" lengthAdjust="spacingAndGlyphs" textLength="70" x="290.5" y="200.0669">Stress test</text><!--link Browser to Report-Viewer--><path d="M68.4151,766.2773 C77.9025,780.8621 91.4441,799.4038 106.5,813 C117.7719,823.179 131.2926,832.41 144.3517,840.2108 " fill="none" id="Browser-Report-Viewer" style="stroke: #A80036; stroke-width: 1.0;"/><polygon fill="#A80036" points="148.7588,842.8007,143.0261,834.7922,144.4481,840.2674,138.9728,841.6894,148.7588,842.8007" style="stroke: #A80036; stroke-width: 1.0;"/><text fill="#000000" font-family="sans-serif" font-size="13" lengthAdjust="spacingAndGlyphs" textLength="70" x="107.5" y="809.0669">Get results</text><!--
@startuml JerichoDeployemnt

node DockerHost {
    node ICNDB {
        node "Vert.X App" {
        }
        node "PostgreSQL DB" {
        }
    "Vert.X App" - -> "PostgreSQL DB": DAL
    }
    node Jericho {

        node Jericho-Attacker {
        }
        node Jericho-Reporter {
        }
        node Report-Viewer {
        }

        "Jericho-Attacker" - -> "Jericho-Reporter" : Simulation Logs
        "Jericho-Reporter" - -> "Report-Viewer": HTML report
    }

"Jericho-Attacker" - -> "Vert.X App" : Stress test
}

node Browser {
}

Browser - -> "Report-Viewer" : Get results

@enduml

PlantUML version 1.2017.19(Sun Nov 12 12:46:22 CET 2017)
(GPL source distribution)
Java Runtime: OpenJDK Runtime Environment
JVM: OpenJDK 64-Bit Server VM
Java Version: 1.8.0_144-b01
Operating System: Linux
OS Version: 4.13.12-1-ARCH
Default Encoding: UTF-8
Language: en
Country: US
--></g></svg>